<?xml version="1.0" encoding="UTF-8" standalone="no"?>
<!DOCTYPE svg PUBLIC "-//W3C//DTD SVG 1.1//EN" "http://www.w3.org/Graphics/SVG/1.1/DTD/svg11.dtd">
<!-- Created with Vectornator (http://vectornator.io/) -->
<svg height="100%" stroke-miterlimit="10" style="fill-rule:nonzero;clip-rule:evenodd;stroke-linecap:round;stroke-linejoin:round;" version="1.1" viewBox="0 0 1024 1024" width="100%" xml:space="preserve" xmlns="http://www.w3.org/2000/svg" xmlns:vectornator="http://vectornator.io" xmlns:xlink="http://www.w3.org/1999/xlink">
<defs/>
<g id="Layer-1" vectornator:layerName="Layer 1">
<path d="M200 5.68434e-14L824 5.68434e-14C934.457 5.68434e-14 1024 89.5431 1024 200L1024 824C1024 934.457 934.457 1024 824 1024L200 1024C89.5431 1024 9.9476e-14 934.457 9.9476e-14 824L9.9476e-14 200C9.9476e-14 89.5431 89.5431 5.68434e-14 200 5.68434e-14Z" fill="#000000" fill-rule="nonzero" opacity="1" stroke="none"/>
<g opacity="1">
<path d="M77.3291 490.478L77.3291 354.459L122.607 354.459C131.674 354.459 139.593 356.199 146.363 359.677C153.133 363.155 158.381 368.03 162.108 374.303C165.834 380.576 167.698 387.936 167.698 396.383C167.698 404.83 165.834 412.19 162.108 418.463C158.381 424.736 153.133 429.611 146.363 433.089C139.593 436.568 131.674 438.307 122.607 438.307L100.62 438.307L100.62 490.478L77.3291 490.478ZM100.62 417.811L122.607 417.811C129.19 417.811 134.407 415.823 138.258 411.848C142.109 407.873 144.034 402.718 144.034 396.383C144.034 390.048 142.109 384.893 138.258 380.918C134.407 376.943 129.19 374.955 122.607 374.955L100.62 374.955L100.62 417.811Z" fill="#ffffff" fill-rule="nonzero" opacity="1" stroke="none"/>
<path d="M192.106 490.478L192.106 387.998L214.838 387.998L214.838 407.563L215.397 407.563C216.391 400.855 219.372 395.607 224.341 391.818C229.31 388.029 235.645 386.135 243.346 386.135C253.905 386.135 262.352 389.582 268.687 396.476C275.022 403.37 278.19 412.78 278.19 424.705L278.19 433.089L253.781 433.089L253.781 426.382C253.781 420.047 252.135 415.109 248.843 411.569C245.551 408.028 240.8 406.258 234.589 406.258C221.795 406.258 215.397 413.401 215.397 427.686L215.397 490.478L192.106 490.478Z" fill="#ffffff" fill-rule="nonzero" opacity="1" stroke="none"/>
<path d="M342.472 492.341C329.429 492.341 319.181 488.708 311.728 481.441C304.275 474.175 300.549 464.268 300.549 451.722L300.549 387.998L323.84 387.998L323.84 451.536C323.84 458.119 325.454 463.181 328.684 466.721C331.914 470.262 336.51 472.032 342.472 472.032C348.311 472.032 352.876 470.262 356.167 466.721C359.459 463.181 361.105 458.119 361.105 451.536L361.105 387.998L384.396 387.998L384.396 451.722C384.396 464.268 380.607 474.175 373.03 481.441C365.453 488.708 355.267 492.341 342.472 492.341Z" fill="#ffffff" fill-rule="nonzero" opacity="1" stroke="none"/>
<path d="M450.356 492.155C442.53 492.155 435.636 490.944 429.673 488.522C423.711 486.099 419.084 482.652 415.792 478.181C412.5 473.709 410.854 468.429 410.854 462.343L434.331 462.343C434.331 465.945 435.791 468.709 438.71 470.634C441.629 472.56 445.573 473.522 450.542 473.522L458.554 473.522C464.392 473.522 468.74 472.467 471.597 470.355C474.454 468.243 475.882 465.324 475.882 461.597C475.882 454.517 470.603 450.169 460.045 448.555L445.697 446.691C424.208 443.586 413.463 433.338 413.463 415.947C413.463 406.258 416.724 398.898 423.245 393.868C429.766 388.837 439.238 386.321 451.66 386.321L458.74 386.321C470.293 386.321 479.578 388.899 486.596 394.054C493.614 399.209 497.124 406.01 497.124 414.457L473.646 414.457C473.646 411.476 472.342 409.146 469.734 407.469C467.125 405.793 463.398 404.954 458.554 404.954L451.474 404.954C441.288 404.954 436.195 408.618 436.195 415.947C436.195 422.282 440.729 426.133 449.797 427.5L464.33 429.736C475.882 431.35 484.484 434.704 490.136 439.797C495.788 444.89 498.614 451.971 498.614 461.038C498.614 470.852 495.229 478.491 488.459 483.957C481.69 489.422 471.721 492.155 458.554 492.155L450.356 492.155Z" fill="#ffffff" fill-rule="nonzero" opacity="1" stroke="none"/>
<path d="M562.152 492.155C554.326 492.155 547.432 490.944 541.469 488.522C535.507 486.099 530.88 482.652 527.588 478.181C524.296 473.709 522.65 468.429 522.65 462.343L546.128 462.343C546.128 465.945 547.587 468.709 550.506 470.634C553.425 472.56 557.369 473.522 562.338 473.522L570.35 473.522C576.188 473.522 580.536 472.467 583.393 470.355C586.25 468.243 587.679 465.324 587.679 461.597C587.679 454.517 582.399 450.169 571.841 448.555L557.494 446.691C536.004 443.586 525.259 433.338 525.259 415.947C525.259 406.258 528.52 398.898 535.041 393.868C541.563 388.837 551.034 386.321 563.456 386.321L570.536 386.321C582.089 386.321 591.374 388.899 598.392 394.054C605.411 399.209 608.92 406.01 608.92 414.457L585.443 414.457C585.443 411.476 584.138 409.146 581.53 407.469C578.921 405.793 575.195 404.954 570.35 404.954L563.27 404.954C553.084 404.954 547.991 408.618 547.991 415.947C547.991 422.282 552.525 426.133 561.593 427.5L576.126 429.736C587.679 431.35 596.281 434.704 601.933 439.797C607.584 444.89 610.41 451.971 610.41 461.038C610.41 470.852 607.025 478.491 600.256 483.957C593.486 489.422 583.517 492.155 570.35 492.155L562.152 492.155Z" fill="#ffffff" fill-rule="nonzero" opacity="1" stroke="none"/>
<path d="M636.124 490.478L636.124 469.423L671.153 469.423L671.153 409.053L639.85 409.053L639.85 387.998L694.444 387.998L694.444 469.423L725.933 469.423L725.933 490.478L636.124 490.478ZM681.215 370.856C676.494 370.856 672.768 369.645 670.035 367.223C667.302 364.801 665.936 361.54 665.936 357.441C665.936 353.342 667.302 350.081 670.035 347.659C672.768 345.236 676.494 344.025 681.215 344.025C685.935 344.025 689.661 345.236 692.394 347.659C695.127 350.081 696.493 353.342 696.493 357.441C696.493 361.54 695.127 364.801 692.394 367.223C689.661 369.645 685.935 370.856 681.215 370.856Z" fill="#ffffff" fill-rule="nonzero" opacity="1" stroke="none"/>
<path d="M778.291 492.341C767.732 492.341 759.41 489.578 753.323 484.05C747.236 478.522 744.193 470.976 744.193 461.411C744.193 451.349 747.671 443.555 754.627 438.027C761.584 432.499 771.273 429.736 783.694 429.736L808.29 429.736L808.29 421.165C808.29 416.196 806.675 412.345 803.445 409.612C800.215 406.879 795.681 405.513 789.843 405.513C784.502 405.513 780.123 406.631 776.707 408.867C773.291 411.103 771.397 414.084 771.024 417.811L748.851 417.811C749.348 408.246 753.416 400.575 761.056 394.799C768.695 389.023 778.539 386.135 790.589 386.135C803.259 386.135 813.258 389.24 820.587 395.451C827.916 401.662 831.58 410.171 831.58 420.978L831.58 490.478L809.035 490.478L809.035 473.15L808.662 473.15C807.296 479.112 803.942 483.801 798.601 487.217C793.259 490.633 786.489 492.341 778.291 492.341ZM785.93 475.013C792.514 475.013 797.886 473.367 802.048 470.075C806.209 466.784 808.29 462.405 808.29 456.939L808.29 444.642L784.253 444.642C779.036 444.642 774.937 445.977 771.956 448.648C768.975 451.318 767.484 454.952 767.484 459.548C767.484 464.392 769.13 468.181 772.422 470.914C775.713 473.647 780.216 475.013 785.93 475.013Z" fill="#ffffff" fill-rule="nonzero" opacity="1" stroke="none"/>
<path d="M859.902 490.478L859.902 387.998L882.634 387.998L882.634 407.563L883.007 407.563C884.125 400.855 887.044 395.607 891.764 391.818C896.484 388.029 902.633 386.135 910.21 386.135C920.272 386.135 928.315 389.489 934.34 396.197C940.364 402.904 943.377 411.91 943.377 423.214L943.377 490.478L920.086 490.478L920.086 425.636C920.086 419.425 918.44 414.643 915.148 411.289C911.856 407.935 907.416 406.258 901.826 406.258C895.987 406.258 891.422 407.997 888.131 411.476C884.839 414.954 883.193 419.922 883.193 426.382L883.193 490.478L859.902 490.478Z" fill="#ffffff" fill-rule="nonzero" opacity="1" stroke="none"/>
<path d="M97.199 590.091C90.9384 590.091 85.9076 588.339 82.1065 584.836C78.3055 581.333 76.4049 576.824 76.4049 571.309C76.4049 565.645 78.3055 561.098 82.1065 557.67C85.9076 554.241 90.9384 552.527 97.199 552.527C103.46 552.527 108.49 554.241 112.291 557.67C116.093 561.098 117.993 565.645 117.993 571.309C117.993 576.824 116.093 581.333 112.291 584.836C108.49 588.339 103.46 590.091 97.199 590.091ZM97.199 679.975C90.9384 679.975 85.9076 678.261 82.1065 674.832C78.3055 671.404 76.4049 666.857 76.4049 661.193C76.4049 655.678 78.3055 651.169 82.1065 647.666C85.9076 644.163 90.9384 642.411 97.199 642.411C103.46 642.411 108.49 644.163 112.291 647.666C116.093 651.169 117.993 655.678 117.993 661.193C117.993 666.857 116.093 671.404 112.291 674.832C108.49 678.261 103.46 679.975 97.199 679.975ZM195.58 590.091C189.319 590.091 184.288 588.339 180.487 584.836C176.686 581.333 174.786 576.824 174.786 571.309C174.786 565.645 176.686 561.098 180.487 557.67C184.288 554.241 189.319 552.527 195.58 552.527C201.84 552.527 206.871 554.241 210.672 557.67C214.473 561.098 216.374 565.645 216.374 571.309C216.374 576.824 214.473 581.333 210.672 584.836C206.871 588.339 201.84 590.091 195.58 590.091ZM195.58 679.975C189.319 679.975 184.288 678.261 180.487 674.832C176.686 671.404 174.786 666.857 174.786 661.193C174.786 655.678 176.686 651.169 180.487 647.666C184.288 644.163 189.319 642.411 195.58 642.411C201.84 642.411 206.871 644.163 210.672 647.666C214.473 651.169 216.374 655.678 216.374 661.193C216.374 666.857 214.473 671.404 210.672 674.832C206.871 678.261 201.84 679.975 195.58 679.975Z" fill="#ffffff" fill-rule="nonzero" opacity="1" stroke="none"/>
<path d="M341.846 679.416C334.021 679.416 327.126 678.205 321.164 675.782C315.202 673.36 310.574 669.913 307.283 665.441C303.991 660.969 302.345 655.69 302.345 649.604L325.822 649.604C325.822 653.206 327.282 655.97 330.201 657.895C333.12 659.82 337.064 660.783 342.033 660.783L350.045 660.783C355.883 660.783 360.231 659.727 363.088 657.616C365.945 655.504 367.373 652.585 367.373 648.858C367.373 641.778 362.094 637.43 351.535 635.815L337.188 633.952C315.698 630.847 304.954 620.599 304.954 603.208C304.954 593.519 308.214 586.159 314.736 581.128C321.257 576.098 330.729 573.582 343.151 573.582L350.231 573.582C361.783 573.582 371.069 576.16 378.087 581.315C385.105 586.47 388.614 593.271 388.614 601.718L365.137 601.718C365.137 598.736 363.833 596.407 361.224 594.73C358.616 593.053 354.889 592.215 350.045 592.215L342.964 592.215C332.778 592.215 327.685 595.879 327.685 603.208C327.685 609.543 332.219 613.394 341.287 614.76L355.821 616.996C367.373 618.611 375.975 621.965 381.627 627.058C387.279 632.151 390.105 639.231 390.105 648.299C390.105 658.112 386.72 665.752 379.95 671.217C373.18 676.683 363.212 679.416 350.045 679.416L341.846 679.416Z" fill="#ffffff" fill-rule="nonzero" opacity="1" stroke="none"/>
<path d="M468.735 677.739C459.17 677.739 451.562 674.975 445.91 669.447C440.258 663.92 437.432 656.436 437.432 646.995L437.432 596.314L409.669 596.314L409.669 575.259L437.432 575.259L437.432 546.378L460.909 546.378L460.909 575.259L500.224 575.259L500.224 596.314L460.909 596.314L460.909 646.436C460.909 649.417 461.748 651.871 463.425 653.796C465.102 655.721 467.431 656.684 470.412 656.684L498.361 656.684L498.361 677.739L468.735 677.739Z" fill="#ffffff" fill-rule="nonzero" opacity="1" stroke="none"/>
<path d="M569.351 679.602C556.309 679.602 546.061 675.969 538.607 668.702C531.154 661.435 527.428 651.529 527.428 638.983L527.428 575.259L550.719 575.259L550.719 638.797C550.719 645.38 552.334 650.442 555.563 653.982C558.793 657.522 563.389 659.293 569.351 659.293C575.19 659.293 579.755 657.522 583.046 653.982C586.338 650.442 587.984 645.38 587.984 638.797L587.984 575.259L611.275 575.259L611.275 638.983C611.275 651.529 607.486 661.435 599.909 668.702C592.332 675.969 582.146 679.602 569.351 679.602Z" fill="#ffffff" fill-rule="nonzero" opacity="1" stroke="none"/>
<path d="M671.831 679.602C661.894 679.602 653.82 676.062 647.609 668.982C641.398 661.901 638.292 652.398 638.292 640.474L638.292 612.711C638.292 600.662 641.367 591.097 647.516 584.016C653.664 576.936 661.77 573.396 671.831 573.396C678.912 573.396 684.874 575.166 689.719 578.706C694.563 582.246 697.917 587.246 699.78 593.705L700.153 593.705L699.408 570.415L699.408 541.72L722.698 541.72L722.698 677.739L699.967 677.739L699.967 659.293L699.78 659.293C697.917 665.752 694.594 670.752 689.812 674.292C685.029 677.832 679.036 679.602 671.831 679.602ZM680.589 659.479C686.551 659.479 691.178 657.678 694.47 654.075C697.762 650.473 699.408 645.38 699.408 638.797L699.408 614.201C699.408 607.618 697.762 602.525 694.47 598.923C691.178 595.32 686.551 593.519 680.589 593.519C674.626 593.519 669.968 595.258 666.614 598.736C663.26 602.214 661.583 607.183 661.583 613.642L661.583 639.356C661.583 645.815 663.26 650.784 666.614 654.262C669.968 657.74 674.626 659.479 680.589 659.479Z" fill="#ffffff" fill-rule="nonzero" opacity="1" stroke="none"/>
<path d="M751.206 677.739L751.206 656.684L786.236 656.684L786.236 596.314L754.933 596.314L754.933 575.259L809.527 575.259L809.527 656.684L841.016 656.684L841.016 677.739L751.206 677.739ZM796.298 558.117C791.577 558.117 787.851 556.906 785.118 554.484C782.385 552.061 781.019 548.801 781.019 544.702C781.019 540.602 782.385 537.342 785.118 534.919C787.851 532.497 791.577 531.286 796.298 531.286C801.018 531.286 804.744 532.497 807.477 534.919C810.21 537.342 811.576 540.602 811.576 544.702C811.576 548.801 810.21 552.061 807.477 554.484C804.744 556.906 801.018 558.117 796.298 558.117Z" fill="#ffffff" fill-rule="nonzero" opacity="1" stroke="none"/>
<path d="M904.74 679.416C891.573 679.416 881.138 675.782 873.437 668.516C865.735 661.249 861.885 651.467 861.885 639.169L861.885 613.829C861.885 601.531 865.735 591.749 873.437 584.482C881.138 577.216 891.573 573.582 904.74 573.582C917.907 573.582 928.341 577.216 936.043 584.482C943.744 591.749 947.595 601.469 947.595 613.642L947.595 639.169C947.595 651.467 943.744 661.249 936.043 668.516C928.341 675.782 917.907 679.416 904.74 679.416ZM904.74 659.106C910.951 659.106 915.764 657.398 919.18 653.982C922.596 650.566 924.304 645.629 924.304 639.169L924.304 613.829C924.304 607.369 922.596 602.432 919.18 599.016C915.764 595.6 910.951 593.892 904.74 593.892C898.529 593.892 893.716 595.6 890.3 599.016C886.884 602.432 885.176 607.369 885.176 613.829L885.176 639.169C885.176 645.629 886.884 650.566 890.3 653.982C893.716 657.398 898.529 659.106 904.74 659.106Z" fill="#ffffff" fill-rule="nonzero" opacity="1" stroke="none"/>
</g>
</g>
</svg>
