<?xml version="1.0" encoding="UTF-8" standalone="no"?>
<!DOCTYPE svg PUBLIC "-//W3C//DTD SVG 1.1//EN" "http://www.w3.org/Graphics/SVG/1.1/DTD/svg11.dtd">
<!-- Created with Vectornator (http://vectornator.io/) -->
<svg height="100%" stroke-miterlimit="10" style="fill-rule:nonzero;clip-rule:evenodd;stroke-linecap:round;stroke-linejoin:round;" version="1.1" viewBox="0 0 841.995 595.35" width="100%" xml:space="preserve" xmlns="http://www.w3.org/2000/svg" xmlns:vectornator="http://vectornator.io" xmlns:xlink="http://www.w3.org/1999/xlink">
<defs/>
<g id="Layer-1" vectornator:layerName="Layer 1">
<path d="M406.785 479.299L405.442 478.467C405.431 478.337 405.418 478.207 405.404 478.076L406.558 476.999C406.677 476.891 406.73 476.728 406.699 476.571C406.667 476.413 406.556 476.284 406.405 476.228L404.929 475.676C404.893 475.549 404.854 475.422 404.814 475.295L405.734 474.016C405.828 473.887 405.848 473.717 405.787 473.569C405.726 473.421 405.593 473.315 405.434 473.289L403.877 473.036C403.817 472.918 403.754 472.802 403.69 472.686L404.344 471.251C404.412 471.106 404.399 470.935 404.31 470.801C404.221 470.668 404.068 470.59 403.907 470.597L402.328 470.652C402.247 470.55 402.163 470.45 402.078 470.35L402.441 468.811C402.479 468.655 402.433 468.491 402.319 468.378C402.206 468.264 402.041 468.218 401.885 468.255L400.347 468.617C400.247 468.533 400.147 468.45 400.044 468.367L400.099 466.789C400.106 466.629 400.029 466.476 399.895 466.387C399.762 466.297 399.591 466.284 399.445 466.352L398.01 467.006C397.894 466.942 397.778 466.88 397.66 466.818L397.407 465.262C397.382 465.104 397.276 464.971 397.128 464.91C396.98 464.848 396.811 464.868 396.681 464.961L395.401 465.881C395.275 465.841 395.149 465.803 395.021 465.766L394.469 464.29C394.414 464.14 394.284 464.029 394.127 463.997C393.97 463.966 393.807 464.019 393.698 464.136L392.621 465.292C392.491 465.278 392.361 465.264 392.23 465.254L391.398 463.91C391.314 463.774 391.165 463.691 391.005 463.691C390.845 463.691 390.697 463.774 390.612 463.91L389.78 465.254C389.65 465.264 389.519 465.278 389.389 465.292L388.312 464.137C388.203 464.021 388.041 463.97 387.885 464.001C387.728 464.032 387.598 464.141 387.541 464.29L386.989 465.766C386.861 465.803 386.734 465.842 386.609 465.882L385.329 464.961C385.2 464.866 385.03 464.846 384.881 464.907C384.733 464.968 384.627 465.103 384.602 465.261L384.348 466.818C384.231 466.879 384.115 466.942 383.998 467.006L382.564 466.352C382.419 466.285 382.248 466.297 382.115 466.387C381.981 466.476 381.904 466.628 381.91 466.788L381.965 468.368C381.863 468.45 381.762 468.533 381.662 468.618L380.124 468.255C379.968 468.219 379.805 468.266 379.692 468.379C379.579 468.492 379.532 468.655 379.567 468.811L379.93 470.35C379.845 470.45 379.762 470.55 379.68 470.652L378.101 470.597C377.941 470.592 377.789 470.669 377.7 470.802C377.611 470.936 377.598 471.106 377.664 471.251L378.318 472.687C378.255 472.802 378.192 472.918 378.131 473.037L376.575 473.289C376.417 473.315 376.283 473.421 376.222 473.569C376.16 473.717 376.18 473.886 376.274 474.016L377.194 475.295C377.154 475.421 377.116 475.548 377.079 475.675L375.603 476.228C375.453 476.284 375.343 476.414 375.312 476.571C375.281 476.728 375.333 476.89 375.45 476.999L376.605 478.076C376.59 478.206 376.577 478.336 376.566 478.467L375.223 479.299C375.087 479.384 375.004 479.532 375.004 479.692C375.004 479.853 375.087 480.001 375.223 480.085L376.566 480.916C376.577 481.047 376.59 481.178 376.605 481.308L375.45 482.385C375.333 482.494 375.281 482.656 375.312 482.814C375.343 482.971 375.453 483.1 375.603 483.156L377.079 483.708C377.116 483.836 377.155 483.963 377.195 484.088L376.274 485.368C376.181 485.498 376.161 485.667 376.223 485.815C376.284 485.963 376.417 486.069 376.575 486.094L378.131 486.347C378.192 486.465 378.254 486.582 378.319 486.697L377.664 488.132C377.598 488.278 377.611 488.448 377.7 488.581C377.789 488.715 377.941 488.792 378.101 488.786L379.68 488.731C379.762 488.834 379.845 488.934 379.93 489.034L379.567 490.573C379.53 490.73 379.576 490.894 379.69 491.008C379.804 491.121 379.968 491.167 380.124 491.128L381.662 490.766C381.762 490.851 381.863 490.933 381.965 491.015L381.91 492.595C381.904 492.756 381.982 492.908 382.115 492.996C382.249 493.085 382.419 493.099 382.564 493.031L383.999 492.377C384.114 492.441 384.231 492.504 384.349 492.565L384.602 494.12C384.627 494.279 384.733 494.414 384.881 494.476C385.03 494.537 385.199 494.517 385.329 494.422L386.608 493.5C386.734 493.54 386.861 493.58 386.988 493.616L387.54 495.092C387.596 495.243 387.725 495.354 387.883 495.386C388.04 495.417 388.203 495.364 388.311 495.245L389.389 494.09C389.519 494.105 389.649 494.118 389.78 494.13L390.612 495.473C390.697 495.609 390.845 495.692 391.005 495.692C391.165 495.692 391.314 495.609 391.398 495.473L392.229 494.129C392.36 494.118 392.491 494.105 392.621 494.09L393.698 495.245C393.807 495.363 393.969 495.416 394.126 495.385C394.283 495.354 394.413 495.243 394.468 495.092L395.021 493.616C395.148 493.58 395.275 493.54 395.401 493.5L396.681 494.422C396.812 494.515 396.981 494.535 397.128 494.473C397.276 494.412 397.382 494.278 397.407 494.12L397.661 492.564C397.778 492.504 397.894 492.44 398.01 492.377L399.445 493.031C399.591 493.099 399.761 493.085 399.895 492.996C400.028 492.907 400.106 492.755 400.099 492.594L400.044 491.014C400.146 490.934 400.247 490.851 400.347 490.766L401.885 491.128C402.041 491.166 402.206 491.12 402.319 491.007C402.433 490.894 402.479 490.729 402.441 490.573L402.079 489.034C402.163 488.934 402.246 488.834 402.328 488.731L403.908 488.786C404.069 488.793 404.221 488.716 404.31 488.582C404.399 488.448 404.412 488.278 404.344 488.132L403.69 486.697C403.754 486.582 403.816 486.465 403.877 486.347L405.433 486.094C405.592 486.07 405.726 485.964 405.788 485.816C405.849 485.668 405.829 485.498 405.734 485.368L404.814 484.088C404.854 483.962 404.892 483.836 404.929 483.708L406.405 483.156C406.556 483.101 406.667 482.971 406.699 482.814C406.73 482.656 406.677 482.494 406.558 482.385L405.403 481.308C405.417 481.178 405.43 481.047 405.442 480.916L406.785 480.085C406.922 480.001 407.004 479.853 407.004 479.692C407.004 479.532 406.922 479.384 406.785 479.299ZM397.794 490.443C397.293 490.322 396.98 489.823 397.088 489.319C397.196 488.815 397.686 488.488 398.193 488.582C398.696 488.703 399.012 489.203 398.903 489.708C398.794 490.214 398.301 490.541 397.793 490.443L397.794 490.443ZM397.337 487.356C396.87 487.256 396.409 487.555 396.309 488.022L395.832 490.248C394.316 490.936 392.67 491.291 391.004 491.288C389.244 491.288 387.574 490.898 386.075 490.201L385.598 487.976C385.551 487.752 385.415 487.555 385.223 487.43C385.03 487.305 384.795 487.261 384.57 487.309L382.605 487.731C382.24 487.356 381.901 486.956 381.589 486.534L391.15 486.534C391.258 486.534 391.33 486.514 391.33 486.416L391.33 483.034C391.33 482.935 391.258 482.916 391.15 482.916L388.354 482.916L388.354 480.771L391.378 480.771C391.654 480.771 392.854 480.85 393.238 482.384C393.358 482.855 393.622 484.39 393.802 484.881C393.982 485.432 394.714 486.533 395.494 486.533L400.258 486.533C400.316 486.533 400.374 486.527 400.431 486.516C400.101 486.965 399.738 487.39 399.348 487.786L397.338 487.355L397.337 487.356ZM384.114 490.396C383.607 490.491 383.117 490.164 383.009 489.66C382.901 489.156 383.214 488.657 383.715 488.535C384.229 488.426 384.735 488.753 384.845 489.267C384.955 489.782 384.627 490.287 384.113 490.397L384.114 490.396ZM380.487 475.689C380.7 476.169 380.484 476.73 380.004 476.943C379.525 477.156 378.963 476.94 378.75 476.46C378.537 475.981 378.754 475.419 379.233 475.206C379.713 474.993 380.274 475.21 380.487 475.689ZM379.372 478.332L381.419 477.422C381.857 477.227 382.054 476.715 381.859 476.277L381.438 475.324L383.096 475.324L383.096 482.798L379.751 482.798C379.338 481.348 379.209 479.832 379.371 478.332L379.372 478.332ZM388.355 477.606L388.355 475.403L392.303 475.403C392.507 475.403 393.743 475.639 393.743 476.563C393.743 477.33 392.795 477.606 392.015 477.606C392.015 477.606 388.355 477.606 388.355 477.606ZM402.704 479.589C402.704 479.881 402.693 480.17 402.671 480.457L401.471 480.457C401.351 480.457 401.303 480.537 401.303 480.654L401.303 481.205C401.303 482.503 400.571 482.785 399.93 482.857C399.32 482.925 398.642 482.601 398.559 482.227C398.199 480.202 397.599 479.769 396.651 479.021C397.827 478.275 399.051 477.173 399.051 475.698C399.051 474.105 397.959 473.102 397.215 472.61C396.171 471.922 395.015 471.784 394.703 471.784L382.289 471.784C384.005 469.866 386.305 468.567 388.834 468.09L390.297 469.625C390.628 469.971 391.177 469.985 391.522 469.653L393.16 468.087C396.538 468.722 399.466 470.807 401.169 473.791L400.048 476.323C399.855 476.761 400.051 477.273 400.488 477.468L402.647 478.426C402.684 478.809 402.703 479.196 402.703 479.589L402.704 479.589ZM390.298 466.784C390.481 466.61 390.725 466.515 390.977 466.521C391.229 466.527 391.468 466.633 391.642 466.815C392.005 467.196 391.991 467.799 391.61 468.161C391.428 468.335 391.184 468.43 390.932 468.424C390.68 468.418 390.441 468.312 390.267 468.129C389.905 467.749 389.919 467.148 390.298 466.784ZM401.421 475.735C401.635 475.256 402.196 475.04 402.676 475.253C403.156 475.466 403.372 476.028 403.158 476.507C402.945 476.987 402.384 477.203 401.904 476.99C401.424 476.777 401.208 476.215 401.421 475.735Z" fill="#000000" fill-rule="nonzero" opacity="1" stroke="none"/>
<path d="M355.663 465.375C355.663 465.425 355.663 465.476 355.663 465.529C355.663 467.342 354.193 468.812 352.38 468.812C350.566 468.812 349.096 467.342 349.096 465.529C349.096 465.475 349.096 465.425 349.096 465.375L338.071 465.375L338.071 494.008L366.705 494.008L366.705 465.375L355.663 465.375ZM351.737 490.943L350.342 484.044L350.318 484.044L348.81 490.943L346.888 490.943L344.712 480.806L346.609 480.806L347.907 487.705L347.931 487.705L349.495 480.806L351.269 480.806L352.673 487.79L352.697 487.79L354.179 480.806L356.041 480.806L353.623 490.943L351.737 490.943ZM362.182 490.943L361.535 488.687L358.122 488.687L357.624 490.943L355.727 490.943L358.18 480.806L361.174 480.806L364.156 490.943L362.182 490.943ZM359.322 483.304L358.494 487.024L361.07 487.024L360.12 483.304L359.322 483.304Z" fill="#000000" fill-rule="nonzero" opacity="1" stroke="none"/>
</g>
</svg>
