<?xml version="1.0" encoding="UTF-8" standalone="no"?>
<!DOCTYPE svg PUBLIC "-//W3C//DTD SVG 1.1//EN" "http://www.w3.org/Graphics/SVG/1.1/DTD/svg11.dtd">
<!-- Created with Vectornator (http://vectornator.io/) -->
<svg height="100%" stroke-miterlimit="10" style="fill-rule:nonzero;clip-rule:evenodd;stroke-linecap:round;stroke-linejoin:round;" version="1.1" viewBox="0 0 786.82 572.258" width="100%" xml:space="preserve" xmlns="http://www.w3.org/2000/svg" xmlns:xlink="http://www.w3.org/1999/xlink">
<defs/>
<clipPath id="ArtboardFrame">
<rect height="572.258" width="786.82" x="0" y="0"/>
</clipPath>
<g clip-path="url(#ArtboardFrame)" id="Untitled">
<path d="M431.621 74.1816C431.621 59.4352 443.575 47.4809 458.321 47.4809C473.068 47.4809 485.022 59.4352 485.022 74.1816C485.022 88.928 473.068 100.882 458.321 100.882C443.575 100.882 431.621 88.928 431.621 74.1816Z" fill="#f2f2f2" fill-rule="nonzero" opacity="1" stroke="none"/>
<path d="M665.448 497.152C705.135 466.923 724.091 416.126 712.224 367.67C711.929 366.466 711.618 365.264 711.29 364.066C703.423 335.302 683.959 307.965 655.59 298.775C631.77 291.058 605.771 296.992 580.921 293.923C532.139 287.899 494.32 248.429 467.71 207.104C441.099 165.778 420.648 119.52 385.288 85.3796C327.003 29.1042 231.926 16.9881 159.661 53.6191C87.3967 90.2503 41.3648 171.52 43.328 252.514C45.2912 333.509 93.3743 410.946 163.203 452.031C188.855 467.124 218.524 477.817 248.051 474.075C273.671 470.829 296.95 457.063 322.45 452.976C362.541 446.55 402.377 464.676 437.052 485.799C471.728 506.922 505.223 531.959 544.627 541.752C582.888 551.26 630.29 523.93 665.448 497.152Z" fill="#f2f2f2" fill-rule="nonzero" opacity="1" stroke="none"/>
<path d="M608.426 55.32C607.556 54.74 606.676 54.19 605.806 53.63C580.657 37.5457 553.701 24.4791 525.496 14.7L518.956 104.92L477.496 104.92L477.496 1.52996C474.886 0.989965 472.256 0.479965 469.626-3.5279e-05L469.626 104.92L420.356 104.92C363.874 104.92 318.086 59.1322 318.086 2.65008L318.086 2.64998C315.446 3.21998 312.826 3.82998 310.206 4.47998L310.206 104.92L270.076 104.92L263.846 18.89C234.861 30.0063 207.343 44.6247 181.906 62.42C181.466 62.72 181.026 63.03 180.596 63.33C178.386 64.88 176.206 66.46 174.036 68.06L174.036 412.25L292.306 412.25L290.216 383.3L278.716 224.35L510.306 224.35L498.806 383.3L496.716 412.25L613.676 412.25L613.676 58.8C611.936 57.62 610.186 56.46 608.426 55.32ZM310.206 198.1L276.816 198.1L270.646 112.8L310.206 112.8L310.206 198.1ZM469.626 198.1L413.546 198.1L413.546 196.41C413.546 194.769 412.894 193.196 411.732 192.036C410.571 190.877 408.997 190.227 407.356 190.23L382.976 190.23C379.562 190.229 376.795 192.996 376.796 196.41L376.796 198.1L318.086 198.1L318.086 112.8L469.626 112.8L469.626 198.1ZM477.496 198.1L477.496 112.8L518.386 112.8L512.216 198.1L477.496 198.1Z" fill="#3f3d56" fill-rule="nonzero" opacity="1" stroke="none"/>
<path d="M-3.05176e-05 434.291C8.68721 444.584 18.0835 454.258 28.12 463.241L758.7 464.241C768.736 455.258 778.133 445.584 786.82 435.291L-3.05176e-05 434.291Z" fill="#3f3d56" fill-rule="nonzero" opacity="1" stroke="none"/>
<path d="M495.43 341.591L495.43 427.295C495.432 429.569 497.275 431.413 499.549 431.414L626.553 431.414C628.828 431.413 630.671 429.569 630.673 427.295L630.673 341.591C630.667 339.319 628.825 337.48 626.553 337.477L499.549 337.477C497.277 337.48 495.435 339.319 495.43 341.591Z" fill="#3f3d56" fill-rule="nonzero" opacity="1" stroke="none"/>
<path d="M498.409 342.658L498.409 426.238C498.411 427.453 499.396 428.437 500.611 428.439L625.496 428.439C626.711 428.437 627.696 427.453 627.698 426.238L627.698 342.658C627.698 341.441 626.713 340.454 625.496 340.452L500.611 340.452C499.394 340.454 498.409 341.441 498.409 342.658Z" fill="#080808" fill-rule="nonzero" opacity="1" stroke="none"/>
<path d="M492.774 444.01C493.245 444.601 493.961 444.944 494.717 444.94L630.709 444.94C631.462 444.939 632.175 444.599 632.65 444.014C633.124 443.429 633.31 442.661 633.155 441.924L631.044 431.897C630.866 431.066 630.28 430.382 629.486 430.079C629.203 429.968 628.902 429.911 628.598 429.911L496.82 429.911C496.516 429.911 496.215 429.968 495.932 430.079C495.138 430.382 494.551 431.066 494.374 431.897L492.263 441.924C492.111 442.661 492.298 443.427 492.774 444.01Z" fill="#2f2e41" fill-rule="nonzero" opacity="1" stroke="none"/>
<path d="M627.144 434.23L623.932 434.23C623.662 434.23 623.444 434.012 623.444 433.742L623.444 432.206C623.444 431.936 623.662 431.717 623.932 431.717L627.144 431.717C627.414 431.717 627.632 431.936 627.632 432.206L627.632 433.742C627.632 434.012 627.414 434.23 627.144 434.23Z" fill="#3f3d56" fill-rule="nonzero" opacity="1" stroke="none"/>
<path d="M618.767 434.23L615.555 434.23C615.285 434.23 615.067 434.012 615.067 433.742L615.067 432.206C615.067 431.936 615.285 431.717 615.555 431.717L618.767 431.717C619.037 431.717 619.255 431.936 619.255 432.206L619.255 433.742C619.255 434.012 619.037 434.23 618.767 434.23Z" fill="#3f3d56" fill-rule="nonzero" opacity="1" stroke="none"/>
<path d="M610.39 434.23L607.178 434.23C606.908 434.23 606.69 434.012 606.69 433.742L606.69 432.206C606.69 431.936 606.908 431.717 607.178 431.717L610.39 431.717C610.66 431.717 610.878 431.936 610.878 432.206L610.878 433.742C610.878 434.012 610.66 434.23 610.39 434.23Z" fill="#3f3d56" fill-rule="nonzero" opacity="1" stroke="none"/>
<path d="M602.013 434.23L598.801 434.23C598.531 434.23 598.313 434.012 598.313 433.742L598.313 432.206C598.313 431.936 598.531 431.717 598.801 431.717L602.013 431.717C602.283 431.717 602.501 431.936 602.501 432.206L602.501 433.742C602.501 434.012 602.283 434.23 602.013 434.23Z" fill="#3f3d56" fill-rule="nonzero" opacity="1" stroke="none"/>
<path d="M593.636 434.23L590.424 434.23C590.154 434.23 589.936 434.012 589.936 433.742L589.936 432.206C589.936 431.936 590.154 431.717 590.424 431.717L593.636 431.717C593.906 431.717 594.124 431.936 594.124 432.206L594.124 433.742C594.124 434.012 593.906 434.23 593.636 434.23Z" fill="#3f3d56" fill-rule="nonzero" opacity="1" stroke="none"/>
<path d="M585.259 434.23L582.047 434.23C581.777 434.23 581.559 434.012 581.559 433.742L581.559 432.206C581.559 431.936 581.777 431.717 582.047 431.717L585.259 431.717C585.529 431.717 585.747 431.936 585.747 432.206L585.747 433.742C585.747 434.012 585.529 434.23 585.259 434.23Z" fill="#3f3d56" fill-rule="nonzero" opacity="1" stroke="none"/>
<path d="M576.882 434.23L573.67 434.23C573.4 434.23 573.182 434.012 573.182 433.742L573.182 432.206C573.182 431.936 573.4 431.717 573.67 431.717L576.882 431.717C577.152 431.717 577.37 431.936 577.37 432.206L577.37 433.742C577.37 434.012 577.152 434.23 576.882 434.23Z" fill="#3f3d56" fill-rule="nonzero" opacity="1" stroke="none"/>
<path d="M568.505 434.23L565.293 434.23C565.023 434.23 564.805 434.012 564.805 433.742L564.805 432.206C564.805 431.936 565.023 431.717 565.293 431.717L568.505 431.717C568.775 431.717 568.993 431.936 568.993 432.206L568.993 433.742C568.993 434.012 568.775 434.23 568.505 434.23Z" fill="#3f3d56" fill-rule="nonzero" opacity="1" stroke="none"/>
<path d="M560.128 434.23L556.916 434.23C556.646 434.23 556.428 434.012 556.428 433.742L556.428 432.206C556.428 431.936 556.646 431.717 556.916 431.717L560.128 431.717C560.398 431.717 560.616 431.936 560.616 432.206L560.616 433.742C560.616 434.012 560.398 434.23 560.128 434.23Z" fill="#3f3d56" fill-rule="nonzero" opacity="1" stroke="none"/>
<path d="M551.751 434.23L548.539 434.23C548.269 434.23 548.051 434.012 548.051 433.742L548.051 432.206C548.051 431.936 548.269 431.717 548.539 431.717L551.751 431.717C552.021 431.717 552.239 431.936 552.239 432.206L552.239 433.742C552.239 434.012 552.021 434.23 551.751 434.23Z" fill="#3f3d56" fill-rule="nonzero" opacity="1" stroke="none"/>
<path d="M543.374 434.23L540.162 434.23C539.892 434.23 539.674 434.012 539.674 433.742L539.674 432.206C539.674 431.936 539.892 431.717 540.162 431.717L543.374 431.717C543.644 431.717 543.862 431.936 543.862 432.206L543.862 433.742C543.862 434.012 543.644 434.23 543.374 434.23Z" fill="#3f3d56" fill-rule="nonzero" opacity="1" stroke="none"/>
<path d="M534.997 434.23L531.785 434.23C531.516 434.23 531.297 434.012 531.297 433.742L531.297 432.206C531.297 431.936 531.516 431.717 531.785 431.717L534.997 431.717C535.267 431.717 535.485 431.936 535.485 432.206L535.485 433.742C535.485 434.012 535.267 434.23 534.997 434.23Z" fill="#3f3d56" fill-rule="nonzero" opacity="1" stroke="none"/>
<path d="M526.62 434.23L523.408 434.23C523.139 434.23 522.92 434.012 522.92 433.742L522.92 432.206C522.92 431.936 523.139 431.717 523.408 431.717L526.62 431.717C526.89 431.717 527.108 431.936 527.108 432.206L527.108 433.742C527.108 434.012 526.89 434.23 526.62 434.23Z" fill="#3f3d56" fill-rule="nonzero" opacity="1" stroke="none"/>
<path d="M518.243 434.23L515.031 434.23C514.762 434.23 514.543 434.012 514.543 433.742L514.543 432.206C514.543 431.936 514.762 431.717 515.031 431.717L518.243 431.717C518.513 431.717 518.731 431.936 518.731 432.206L518.731 433.742C518.731 434.012 518.513 434.23 518.243 434.23Z" fill="#3f3d56" fill-rule="nonzero" opacity="1" stroke="none"/>
<path d="M509.866 434.23L506.654 434.23C506.385 434.23 506.166 434.012 506.166 433.742L506.166 432.206C506.166 431.936 506.385 431.717 506.654 431.717L509.866 431.717C510.136 431.717 510.355 431.936 510.355 432.206L510.355 433.742C510.355 434.012 510.136 434.23 509.866 434.23Z" fill="#3f3d56" fill-rule="nonzero" opacity="1" stroke="none"/>
<path d="M501.489 434.23L498.277 434.23C498.008 434.23 497.789 434.012 497.789 433.742L497.789 432.206C497.789 431.936 498.008 431.717 498.277 431.717L501.489 431.717C501.759 431.717 501.977 431.936 501.977 432.206L501.977 433.742C501.977 434.012 501.759 434.23 501.489 434.23Z" fill="#3f3d56" fill-rule="nonzero" opacity="1" stroke="none"/>
<path d="M627.243 438.419L624.031 438.419C623.761 438.419 623.543 438.2 623.543 437.931L623.543 436.394C623.543 436.124 623.761 435.906 624.031 435.906L627.243 435.906C627.513 435.906 627.731 436.124 627.731 436.394L627.731 437.931C627.731 438.2 627.513 438.419 627.243 438.419Z" fill="#3f3d56" fill-rule="nonzero" opacity="1" stroke="none"/>
<path d="M618.866 438.419L615.654 438.419C615.384 438.419 615.166 438.2 615.166 437.931L615.166 436.394C615.166 436.124 615.384 435.906 615.654 435.906L618.866 435.906C619.136 435.906 619.354 436.124 619.354 436.394L619.354 437.931C619.354 438.2 619.136 438.419 618.866 438.419Z" fill="#3f3d56" fill-rule="nonzero" opacity="1" stroke="none"/>
<path d="M610.489 438.419L607.277 438.419C607.007 438.419 606.789 438.2 606.789 437.931L606.789 436.394C606.789 436.124 607.007 435.906 607.277 435.906L610.489 435.906C610.759 435.906 610.977 436.124 610.977 436.394L610.977 437.931C610.977 438.2 610.759 438.419 610.489 438.419Z" fill="#3f3d56" fill-rule="nonzero" opacity="1" stroke="none"/>
<path d="M602.112 438.419L598.9 438.419C598.63 438.419 598.412 438.2 598.412 437.931L598.412 436.394C598.412 436.124 598.63 435.906 598.9 435.906L602.112 435.906C602.382 435.906 602.6 436.124 602.6 436.394L602.6 437.931C602.6 438.2 602.382 438.419 602.112 438.419Z" fill="#3f3d56" fill-rule="nonzero" opacity="1" stroke="none"/>
<path d="M593.735 438.419L590.523 438.419C590.253 438.419 590.035 438.2 590.035 437.931L590.035 436.394C590.035 436.124 590.253 435.906 590.523 435.906L593.735 435.906C594.005 435.906 594.223 436.124 594.223 436.394L594.223 437.931C594.223 438.2 594.005 438.419 593.735 438.419Z" fill="#3f3d56" fill-rule="nonzero" opacity="1" stroke="none"/>
<path d="M585.358 438.419L582.146 438.419C581.876 438.419 581.658 438.2 581.658 437.931L581.658 436.394C581.658 436.124 581.876 435.906 582.146 435.906L585.358 435.906C585.628 435.906 585.846 436.124 585.846 436.394L585.846 437.931C585.846 438.2 585.628 438.419 585.358 438.419Z" fill="#3f3d56" fill-rule="nonzero" opacity="1" stroke="none"/>
<path d="M576.981 438.419L573.769 438.419C573.499 438.419 573.281 438.2 573.281 437.931L573.281 436.394C573.281 436.124 573.499 435.906 573.769 435.906L576.981 435.906C577.251 435.906 577.469 436.124 577.469 436.394L577.469 437.931C577.469 438.2 577.251 438.419 576.981 438.419Z" fill="#3f3d56" fill-rule="nonzero" opacity="1" stroke="none"/>
<path d="M568.604 438.419L565.392 438.419C565.122 438.419 564.904 438.2 564.904 437.931L564.904 436.394C564.904 436.124 565.122 435.906 565.392 435.906L568.604 435.906C568.874 435.906 569.092 436.124 569.092 436.394L569.092 437.931C569.092 438.2 568.874 438.419 568.604 438.419Z" fill="#3f3d56" fill-rule="nonzero" opacity="1" stroke="none"/>
<path d="M560.227 438.419L557.015 438.419C556.745 438.419 556.527 438.2 556.527 437.931L556.527 436.394C556.527 436.124 556.745 435.906 557.015 435.906L560.227 435.906C560.497 435.906 560.715 436.124 560.715 436.394L560.715 437.931C560.715 438.2 560.497 438.419 560.227 438.419Z" fill="#3f3d56" fill-rule="nonzero" opacity="1" stroke="none"/>
<path d="M551.85 438.419L548.638 438.419C548.368 438.419 548.15 438.2 548.15 437.931L548.15 436.394C548.15 436.124 548.368 435.906 548.638 435.906L551.85 435.906C552.12 435.906 552.338 436.124 552.338 436.394L552.338 437.931C552.338 438.2 552.12 438.419 551.85 438.419Z" fill="#3f3d56" fill-rule="nonzero" opacity="1" stroke="none"/>
<path d="M543.473 438.419L540.261 438.419C539.991 438.419 539.773 438.2 539.773 437.931L539.773 436.394C539.773 436.124 539.991 435.906 540.261 435.906L543.473 435.906C543.743 435.906 543.961 436.124 543.961 436.394L543.961 437.931C543.961 438.2 543.743 438.419 543.473 438.419Z" fill="#3f3d56" fill-rule="nonzero" opacity="1" stroke="none"/>
<path d="M535.096 438.419L531.884 438.419C531.615 438.419 531.396 438.2 531.396 437.931L531.396 436.394C531.396 436.124 531.615 435.906 531.884 435.906L535.096 435.906C535.366 435.906 535.584 436.124 535.584 436.394L535.584 437.931C535.584 438.2 535.366 438.419 535.096 438.419Z" fill="#3f3d56" fill-rule="nonzero" opacity="1" stroke="none"/>
<path d="M526.719 438.419L523.507 438.419C523.237 438.419 523.019 438.2 523.019 437.931L523.019 436.394C523.019 436.124 523.237 435.906 523.507 435.906L526.719 435.906C526.989 435.906 527.207 436.124 527.207 436.394L527.207 437.931C527.207 438.2 526.989 438.419 526.719 438.419Z" fill="#3f3d56" fill-rule="nonzero" opacity="1" stroke="none"/>
<path d="M518.342 438.419L515.13 438.419C514.861 438.419 514.642 438.2 514.642 437.931L514.642 436.394C514.642 436.124 514.861 435.906 515.13 435.906L518.342 435.906C518.612 435.906 518.83 436.124 518.83 436.394L518.83 437.931C518.83 438.2 518.612 438.419 518.342 438.419Z" fill="#3f3d56" fill-rule="nonzero" opacity="1" stroke="none"/>
<path d="M509.965 438.419L506.753 438.419C506.483 438.419 506.265 438.2 506.265 437.931L506.265 436.394C506.265 436.124 506.483 435.906 506.753 435.906L509.965 435.906C510.235 435.906 510.453 436.124 510.453 436.394L510.453 437.931C510.453 438.2 510.235 438.419 509.965 438.419Z" fill="#3f3d56" fill-rule="nonzero" opacity="1" stroke="none"/>
<path d="M501.588 438.419L498.376 438.419C498.107 438.419 497.888 438.2 497.888 437.931L497.888 436.394C497.888 436.124 498.107 435.906 498.376 435.906L501.588 435.906C501.858 435.906 502.077 436.124 502.076 436.394L502.076 437.931C502.077 438.2 501.858 438.419 501.588 438.419Z" fill="#3f3d56" fill-rule="nonzero" opacity="1" stroke="none"/>
<path d="M587.034 443.445L554.502 443.445C554.232 443.445 554.014 443.227 554.014 442.957L554.014 441.42C554.014 441.151 554.232 440.932 554.502 440.932L587.034 440.932C587.303 440.932 587.522 441.151 587.522 441.42L587.522 442.957C587.522 443.227 587.303 443.445 587.034 443.445Z" fill="#3f3d56" fill-rule="nonzero" opacity="1" stroke="none"/>
<path d="M517.192 358.737L520.036 358.737C520.898 358.737 521.597 359.436 521.597 360.298L521.597 360.298C521.597 361.16 520.898 361.859 520.036 361.859L517.192 361.859C516.33 361.859 515.631 361.16 515.631 360.298L515.631 360.298C515.631 359.436 516.33 358.737 517.192 358.737Z" fill="#ffffff" fill-rule="nonzero" opacity="1" stroke="none"/>
<path d="M549.715 358.737L552.559 358.737C553.421 358.737 554.12 359.436 554.12 360.298L554.12 360.298C554.12 361.16 553.421 361.859 552.559 361.859L549.715 361.859C548.853 361.859 548.154 361.16 548.154 360.298L548.154 360.298C548.154 359.436 548.853 358.737 549.715 358.737Z" fill="#ffffff" fill-rule="nonzero" opacity="1" stroke="none"/>
<path d="M558.93 358.737L561.774 358.737C562.636 358.737 563.335 359.436 563.335 360.298L563.335 360.298C563.335 361.16 562.636 361.859 561.774 361.859L558.93 361.859C558.068 361.859 557.369 361.16 557.369 360.298L557.369 360.298C557.369 359.436 558.068 358.737 558.93 358.737Z" fill="#ffffff" fill-rule="nonzero" opacity="1" stroke="none"/>
<path d="M526.039 358.477L543.712 358.477C544.575 358.477 545.274 359.176 545.274 360.038L545.274 360.038C545.274 360.9 544.575 361.599 543.712 361.599L526.039 361.599C525.176 361.599 524.477 360.9 524.477 360.038L524.477 360.038C524.477 359.176 525.176 358.477 526.039 358.477Z" fill="#ffffff" fill-rule="nonzero" opacity="1" stroke="none"/>
<path d="M569.403 358.477L587.076 358.477C587.939 358.477 588.638 359.176 588.638 360.038L588.638 360.038C588.638 360.9 587.939 361.599 587.076 361.599L569.403 361.599C568.54 361.599 567.841 360.9 567.841 360.038L567.841 360.038C567.841 359.176 568.54 358.477 569.403 358.477Z" fill="#ffffff" fill-rule="nonzero" opacity="1" stroke="none"/>
<path d="M525.865 365.784L528.709 365.784C529.571 365.784 530.27 366.483 530.27 367.345L530.27 367.345C530.27 368.207 529.571 368.906 528.709 368.906L525.865 368.906C525.003 368.906 524.304 368.207 524.304 367.345L524.304 367.345C524.304 366.483 525.003 365.784 525.865 365.784Z" fill="#ffffff" fill-rule="nonzero" opacity="1" stroke="none"/>
<path d="M558.388 365.784L561.232 365.784C562.094 365.784 562.793 366.483 562.793 367.345L562.793 367.345C562.793 368.207 562.094 368.906 561.232 368.906L558.388 368.906C557.526 368.906 556.827 368.207 556.827 367.345L556.827 367.345C556.827 366.483 557.526 365.784 558.388 365.784Z" fill="#ffffff" fill-rule="nonzero" opacity="1" stroke="none"/>
<path d="M567.603 365.784L570.446 365.784C571.309 365.784 572.008 366.483 572.008 367.345L572.008 367.345C572.008 368.207 571.309 368.906 570.446 368.906L567.603 368.906C566.741 368.906 566.042 368.207 566.042 367.345L566.042 367.345C566.042 366.483 566.741 365.784 567.603 365.784Z" fill="#ffffff" fill-rule="nonzero" opacity="1" stroke="none"/>
<path d="M534.711 365.523L552.385 365.523C553.247 365.523 553.946 366.222 553.946 367.085L553.946 367.085C553.946 367.947 553.247 368.646 552.385 368.646L534.711 368.646C533.849 368.646 533.15 367.947 533.15 367.085L533.15 367.085C533.15 366.222 533.849 365.523 534.711 365.523Z" fill="#ffffff" fill-rule="nonzero" opacity="1" stroke="none"/>
<path d="M578.075 365.523L595.749 365.523C596.611 365.523 597.31 366.222 597.31 367.085L597.31 367.085C597.31 367.947 596.611 368.646 595.749 368.646L578.075 368.646C577.213 368.646 576.514 367.947 576.514 367.085L576.514 367.085C576.514 366.222 577.213 365.523 578.075 365.523Z" fill="#ffffff" fill-rule="nonzero" opacity="1" stroke="none"/>
<path d="M534.538 372.83L537.381 372.83C538.244 372.83 538.942 373.529 538.943 374.391L538.943 374.391C538.942 375.254 538.244 375.953 537.381 375.953L534.538 375.953C533.676 375.953 532.977 375.254 532.977 374.391L532.977 374.391C532.977 373.529 533.676 372.83 534.538 372.83Z" fill="#ffffff" fill-rule="nonzero" opacity="1" stroke="none"/>
<path d="M567.061 372.83L569.904 372.83C570.767 372.83 571.466 373.529 571.466 374.391L571.466 374.391C571.466 375.254 570.767 375.953 569.904 375.953L567.061 375.953C566.199 375.953 565.5 375.254 565.5 374.391L565.5 374.391C565.5 373.529 566.199 372.83 567.061 372.83Z" fill="#ffffff" fill-rule="nonzero" opacity="1" stroke="none"/>
<path d="M576.276 372.83L579.119 372.83C579.981 372.83 580.68 373.529 580.68 374.391L580.68 374.391C580.68 375.254 579.981 375.953 579.119 375.953L576.276 375.953C575.413 375.953 574.715 375.254 574.715 374.391L574.715 374.391C574.715 373.529 575.413 372.83 576.276 372.83Z" fill="#ffffff" fill-rule="nonzero" opacity="1" stroke="none"/>
<path d="M543.384 372.57L561.058 372.57C561.92 372.57 562.619 373.269 562.619 374.131L562.619 374.131C562.619 374.993 561.92 375.692 561.058 375.692L543.384 375.692C542.522 375.692 541.823 374.993 541.823 374.131L541.823 374.131C541.823 373.269 542.522 372.57 543.384 372.57Z" fill="#ffffff" fill-rule="nonzero" opacity="1" stroke="none"/>
<path d="M586.748 372.57L604.422 372.57C605.284 372.57 605.983 373.269 605.983 374.131L605.983 374.131C605.983 374.993 605.284 375.692 604.422 375.692L586.748 375.692C585.886 375.692 585.187 374.993 585.187 374.131L585.187 374.131C585.187 373.269 585.886 372.57 586.748 372.57Z" fill="#ffffff" fill-rule="nonzero" opacity="1" stroke="none"/>
<path d="M543.211 379.877L546.054 379.877C546.916 379.877 547.615 380.576 547.615 381.438L547.615 381.438C547.615 382.3 546.916 382.999 546.054 382.999L543.211 382.999C542.348 382.999 541.649 382.3 541.649 381.438L541.649 381.438C541.649 380.576 542.348 379.877 543.211 379.877Z" fill="#ffffff" fill-rule="nonzero" opacity="1" stroke="none"/>
<path d="M575.734 379.877L578.577 379.877C579.439 379.877 580.138 380.576 580.138 381.438L580.138 381.438C580.138 382.3 579.439 382.999 578.577 382.999L575.734 382.999C574.871 382.999 574.172 382.3 574.172 381.438L574.172 381.438C574.172 380.576 574.871 379.877 575.734 379.877Z" fill="#ffffff" fill-rule="nonzero" opacity="1" stroke="none"/>
<path d="M584.948 379.877L587.792 379.877C588.654 379.877 589.353 380.576 589.353 381.438L589.353 381.438C589.353 382.3 588.654 382.999 587.792 382.999L584.948 382.999C584.086 382.999 583.387 382.3 583.387 381.438L583.387 381.438C583.387 380.576 584.086 379.877 584.948 379.877Z" fill="#ffffff" fill-rule="nonzero" opacity="1" stroke="none"/>
<path d="M552.057 379.617L569.731 379.617C570.593 379.617 571.292 380.316 571.292 381.178L571.292 381.178C571.292 382.04 570.593 382.739 569.731 382.739L552.057 382.739C551.195 382.739 550.496 382.04 550.496 381.178L550.496 381.178C550.496 380.316 551.195 379.617 552.057 379.617Z" fill="#ffffff" fill-rule="nonzero" opacity="1" stroke="none"/>
<path d="M549.715 407.898L552.559 407.898C553.421 407.898 554.12 408.596 554.12 409.459L554.12 409.459C554.12 410.321 553.421 411.02 552.559 411.02L549.715 411.02C548.853 411.02 548.154 410.321 548.154 409.459L548.154 409.459C548.154 408.596 548.853 407.898 549.715 407.898Z" fill="#ffffff" fill-rule="nonzero" opacity="1" stroke="none"/>
<path d="M558.93 407.898L561.774 407.898C562.636 407.898 563.335 408.596 563.335 409.459L563.335 409.459C563.335 410.321 562.636 411.02 561.774 411.02L558.93 411.02C558.068 411.02 557.369 410.321 557.369 409.459L557.369 409.459C557.369 408.596 558.068 407.898 558.93 407.898Z" fill="#ffffff" fill-rule="nonzero" opacity="1" stroke="none"/>
<path d="M569.403 408.158L587.076 408.158C587.939 408.158 588.638 408.857 588.638 409.719L588.638 409.719C588.638 410.581 587.939 411.28 587.076 411.28L569.403 411.28C568.54 411.28 567.841 410.581 567.841 409.719L567.841 409.719C567.841 408.857 568.54 408.158 569.403 408.158Z" fill="#ffffff" fill-rule="nonzero" opacity="1" stroke="none"/>
<path d="M517.192 407.898L520.036 407.898C520.898 407.898 521.597 408.596 521.597 409.459L521.597 409.459C521.597 410.321 520.898 411.02 520.036 411.02L517.192 411.02C516.33 411.02 515.631 410.321 515.631 409.459L515.631 409.459C515.631 408.596 516.33 407.898 517.192 407.898Z" fill="#ffffff" fill-rule="nonzero" opacity="1" stroke="none"/>
<path d="M526.039 408.158L543.712 408.158C544.575 408.158 545.274 408.857 545.274 409.719L545.274 409.719C545.274 410.581 544.575 411.28 543.712 411.28L526.039 411.28C525.176 411.28 524.477 410.581 524.477 409.719L524.477 409.719C524.477 408.857 525.176 408.158 526.039 408.158Z" fill="#ffffff" fill-rule="nonzero" opacity="1" stroke="none"/>
<path d="M525.865 400.851L528.709 400.851C529.571 400.851 530.27 401.55 530.27 402.412L530.27 402.412C530.27 403.274 529.571 403.973 528.709 403.973L525.865 403.973C525.003 403.973 524.304 403.274 524.304 402.412L524.304 402.412C524.304 401.55 525.003 400.851 525.865 400.851Z" fill="#ffffff" fill-rule="nonzero" opacity="1" stroke="none"/>
<path d="M558.388 400.851L561.232 400.851C562.094 400.851 562.793 401.55 562.793 402.412L562.793 402.412C562.793 403.274 562.094 403.973 561.232 403.973L558.388 403.973C557.526 403.973 556.827 403.274 556.827 402.412L556.827 402.412C556.827 401.55 557.526 400.851 558.388 400.851Z" fill="#ffffff" fill-rule="nonzero" opacity="1" stroke="none"/>
<path d="M567.603 400.851L570.446 400.851C571.309 400.851 572.008 401.55 572.008 402.412L572.008 402.412C572.008 403.274 571.309 403.973 570.446 403.973L567.603 403.973C566.741 403.973 566.042 403.274 566.042 402.412L566.042 402.412C566.042 401.55 566.741 400.851 567.603 400.851Z" fill="#ffffff" fill-rule="nonzero" opacity="1" stroke="none"/>
<path d="M534.711 401.111L552.385 401.111C553.247 401.111 553.946 401.81 553.946 402.672L553.946 402.672C553.946 403.534 553.247 404.233 552.385 404.233L534.711 404.233C533.849 404.233 533.15 403.534 533.15 402.672L533.15 402.672C533.15 401.81 533.849 401.111 534.711 401.111Z" fill="#ffffff" fill-rule="nonzero" opacity="1" stroke="none"/>
<path d="M534.538 393.804L537.381 393.804C538.244 393.804 538.942 394.503 538.943 395.365L538.943 395.365C538.942 396.227 538.244 396.926 537.381 396.926L534.538 396.926C533.676 396.926 532.977 396.227 532.977 395.365L532.977 395.365C532.977 394.503 533.676 393.804 534.538 393.804Z" fill="#ffffff" fill-rule="nonzero" opacity="1" stroke="none"/>
<path d="M567.061 393.804L569.904 393.804C570.767 393.804 571.466 394.503 571.466 395.365L571.466 395.365C571.466 396.227 570.767 396.926 569.904 396.926L567.061 396.926C566.199 396.926 565.5 396.227 565.5 395.365L565.5 395.365C565.5 394.503 566.199 393.804 567.061 393.804Z" fill="#ffffff" fill-rule="nonzero" opacity="1" stroke="none"/>
<path d="M576.276 393.804L579.119 393.804C579.981 393.804 580.68 394.503 580.68 395.365L580.68 395.365C580.68 396.227 579.981 396.926 579.119 396.926L576.276 396.926C575.413 396.926 574.715 396.227 574.715 395.365L574.715 395.365C574.715 394.503 575.413 393.804 576.276 393.804Z" fill="#ffffff" fill-rule="nonzero" opacity="1" stroke="none"/>
<path d="M543.384 394.064L561.058 394.064C561.92 394.064 562.619 394.763 562.619 395.626L562.619 395.626C562.619 396.488 561.92 397.187 561.058 397.187L543.384 397.187C542.522 397.187 541.823 396.488 541.823 395.626L541.823 395.626C541.823 394.763 542.522 394.064 543.384 394.064Z" fill="#ffffff" fill-rule="nonzero" opacity="1" stroke="none"/>
<path d="M543.211 386.758L546.054 386.758C546.916 386.758 547.615 387.456 547.615 388.319L547.615 388.319C547.615 389.181 546.916 389.88 546.054 389.88L543.211 389.88C542.348 389.88 541.649 389.181 541.649 388.319L541.649 388.319C541.649 387.456 542.348 386.758 543.211 386.758Z" fill="#ffffff" fill-rule="nonzero" opacity="1" stroke="none"/>
<path d="M575.734 386.758L578.577 386.758C579.439 386.758 580.138 387.456 580.138 388.319L580.138 388.319C580.138 389.181 579.439 389.88 578.577 389.88L575.734 389.88C574.871 389.88 574.172 389.181 574.172 388.319L574.172 388.319C574.172 387.456 574.871 386.758 575.734 386.758Z" fill="#ffffff" fill-rule="nonzero" opacity="1" stroke="none"/>
<path d="M584.948 386.758L587.792 386.758C588.654 386.758 589.353 387.456 589.353 388.319L589.353 388.319C589.353 389.181 588.654 389.88 587.792 389.88L584.948 389.88C584.086 389.88 583.387 389.181 583.387 388.319L583.387 388.319C583.387 387.456 584.086 386.758 584.948 386.758Z" fill="#ffffff" fill-rule="nonzero" opacity="1" stroke="none"/>
<path d="M552.057 387.018L569.731 387.018C570.593 387.018 571.292 387.717 571.292 388.579L571.292 388.579C571.292 389.441 570.593 390.14 569.731 390.14L552.057 390.14C551.195 390.14 550.496 389.441 550.496 388.579L550.496 388.579C550.496 387.717 551.195 387.018 552.057 387.018Z" fill="#ffffff" fill-rule="nonzero" opacity="1" stroke="none"/>
<path d="M191.69 337.481L191.69 440.041L263.54 440.041L263.54 337.481C263.542 335.967 262.557 334.628 261.11 334.181C260.778 334.071 260.43 334.017 260.08 334.021L195.16 334.021C193.246 334.017 191.692 335.567 191.69 337.481ZM219.73 372.721C219.769 368.513 223.192 365.122 227.4 365.122C231.608 365.122 235.031 368.513 235.07 372.721L235.07 384.621C235.048 388.842 231.621 392.252 227.4 392.252C223.179 392.252 219.752 388.842 219.73 384.621L219.73 372.721Z" fill="#2f2e41" fill-rule="nonzero" opacity="1" stroke="none"/>
<path d="M191.47 436.761L191.47 446.651C191.473 447.717 192.334 448.582 193.4 448.591L261.83 448.591C262.898 448.586 263.76 447.718 263.76 446.651L263.76 436.761L191.47 436.761Z" fill="#3f3d56" fill-rule="nonzero" opacity="1" stroke="none"/>
<path d="M78.66 182.961L78.66 370.221C78.6639 375.19 82.691 379.217 87.66 379.221L365.16 379.221C370.129 379.217 374.156 375.19 374.16 370.221L374.16 182.961C374.148 177.997 370.124 173.977 365.16 173.971L87.66 173.971C82.6959 173.977 78.6718 177.997 78.66 182.961Z" fill="#3f3d56" fill-rule="nonzero" opacity="1" stroke="none"/>
<path d="M85.17 185.291L85.17 367.911C85.1746 370.565 87.3254 372.716 89.98 372.721L362.85 372.721C365.505 372.716 367.655 370.565 367.66 367.911L367.66 185.291C367.66 182.633 365.508 180.477 362.85 180.471L89.98 180.471C87.322 180.477 85.1703 182.633 85.17 185.291Z" fill="#ffffff" fill-rule="nonzero" opacity="1" stroke="none"/>
<path d="M135.81 447.921C136.373 448.626 137.228 449.035 138.13 449.031L300.47 449.031C301.369 449.03 302.22 448.624 302.786 447.925C303.353 447.227 303.574 446.311 303.39 445.431L300.87 433.461C300.658 432.469 299.958 431.652 299.01 431.291C298.672 431.158 298.313 431.09 297.95 431.091L140.64 431.091C140.277 431.09 139.918 431.158 139.58 431.291C138.632 431.652 137.932 432.469 137.72 433.461L135.2 445.431C135.018 446.31 135.242 447.225 135.81 447.921Z" fill="#2f2e41" fill-rule="nonzero" opacity="1" stroke="none"/>
<path d="M353.995 205.628L98.6711 205.628C98.1191 205.615 97.678 205.164 97.678 204.612C97.678 204.06 98.1191 203.609 98.6711 203.597L353.995 203.597C354.546 203.609 354.988 204.06 354.988 204.612C354.988 205.164 354.546 205.615 353.995 205.628Z" fill="#3f3d56" fill-rule="nonzero" opacity="1" stroke="none"/>
<path d="M110.101 192.33C110.101 188.97 112.765 186.247 116.051 186.247C119.338 186.247 122.002 188.97 122.002 192.33C122.002 195.689 119.338 198.413 116.051 198.413C112.765 198.413 110.101 195.689 110.101 192.33Z" fill="#3f3d56" fill-rule="nonzero" opacity="1" stroke="none"/>
<path d="M130.657 192.33C130.657 188.97 133.321 186.247 136.607 186.247C139.894 186.247 142.558 188.97 142.558 192.33C142.558 195.689 139.894 198.413 136.607 198.413C133.321 198.413 130.657 195.689 130.657 192.33Z" fill="#3f3d56" fill-rule="nonzero" opacity="1" stroke="none"/>
<path d="M151.213 192.33C151.213 188.97 153.877 186.247 157.163 186.247C160.45 186.247 163.114 188.97 163.114 192.33C163.114 195.689 160.45 198.413 157.163 198.413C153.877 198.413 151.213 195.689 151.213 192.33Z" fill="#3f3d56" fill-rule="nonzero" opacity="1" stroke="none"/>
<path d="M341.616 187.751L327.016 187.751C326.416 187.765 325.937 188.255 325.937 188.856C325.937 189.456 326.416 189.947 327.016 189.961L341.616 189.961C342.221 189.952 342.706 189.46 342.706 188.856C342.706 188.252 342.221 187.759 341.616 187.751Z" fill="#3f3d56" fill-rule="nonzero" opacity="1" stroke="none"/>
<path d="M341.616 191.901L327.016 191.901C326.416 191.914 325.935 192.405 325.935 193.006C325.935 193.607 326.416 194.098 327.016 194.111L341.616 194.111C342.221 194.104 342.708 193.611 342.708 193.006C342.708 192.401 342.221 191.908 341.616 191.901Z" fill="#3f3d56" fill-rule="nonzero" opacity="1" stroke="none"/>
<path d="M341.616 196.051L327.016 196.051C326.416 196.065 325.937 196.555 325.937 197.156C325.937 197.756 326.416 198.247 327.016 198.261L341.616 198.261C342.221 198.252 342.706 197.76 342.706 197.156C342.706 196.552 342.221 196.059 341.616 196.051Z" fill="#3f3d56" fill-rule="nonzero" opacity="1" stroke="none"/>
<path d="M693.596 441.101C694.5 443.733 696.997 445.482 699.779 445.432L726.271 444.75C729.076 444.696 731.511 442.8 732.251 440.093L736 400.006C737.33 400.609 738.778 400.906 740.238 400.877C745.572 400.743 749.788 396.31 749.654 390.976C749.52 385.642 745.088 381.427 739.753 381.56C739.17 381.559 738.588 381.619 738.017 381.741C736.762 380.383 734.992 379.619 733.143 379.638L692.393 380.69C692.055 380.703 691.718 380.745 691.387 380.815C689.579 381.152 688.006 382.255 687.071 383.839C686.137 385.423 685.934 387.334 686.514 389.08L693.596 441.101ZM736.769 397.284L739.437 387.732C739.74 386.628 739.747 385.464 739.457 384.357C739.587 384.357 739.701 384.295 739.83 384.295C743.638 384.216 746.792 387.234 746.881 391.042C746.971 394.85 743.962 398.012 740.154 398.112C738.971 398.149 737.801 397.863 736.769 397.284Z" fill="#2f2e41" fill-rule="nonzero" opacity="1" stroke="none"/>
<path d="M691.388 380.815C692.256 385.779 702.017 389.269 713.753 388.662C724.546 388.165 733.371 384.375 734.988 379.884C734.389 379.707 733.767 379.624 733.143 379.638L692.393 380.69C692.055 380.703 691.718 380.745 691.388 380.815Z" fill="#3f3d56" fill-rule="nonzero" opacity="1" stroke="none"/>
<path d="M715.904 419.073C715.958 419.059 716.009 419.037 716.055 419.007L721.808 415.241C721.95 415.149 722.035 414.992 722.035 414.823C722.035 414.654 721.95 414.497 721.809 414.405L715.829 410.488C715.68 410.389 715.489 410.378 715.329 410.458C715.169 410.539 715.064 410.698 715.054 410.877C715.044 411.056 715.131 411.226 715.281 411.324L720.622 414.822L715.508 418.17C715.303 418.304 715.226 418.566 715.324 418.789C715.422 419.013 715.667 419.133 715.904 419.073Z" fill="#080808" fill-rule="nonzero" opacity="1" stroke="none"/>
<path d="M706.818 419.492C707.015 419.442 707.163 419.277 707.19 419.075C707.218 418.874 707.12 418.675 706.944 418.574L701.641 415.533L706.766 411.726C706.988 411.562 707.034 411.249 706.869 411.027C706.705 410.806 706.392 410.759 706.17 410.924L700.432 415.187C700.296 415.287 700.22 415.449 700.23 415.617C700.24 415.786 700.334 415.938 700.481 416.021L706.446 419.441C706.559 419.506 706.692 419.524 706.818 419.492Z" fill="#080808" fill-rule="nonzero" opacity="1" stroke="none"/>
<path d="M715.332 422.373C715.381 422.361 715.427 422.341 715.469 422.315C715.583 422.246 715.664 422.135 715.695 422.006C715.727 421.877 715.706 421.741 715.637 421.628L707.481 408.22C707.337 407.984 707.03 407.91 706.794 408.053C706.559 408.197 706.484 408.504 706.627 408.74L714.782 422.149C714.897 422.336 715.119 422.427 715.332 422.373Z" fill="#080808" fill-rule="nonzero" opacity="1" stroke="none"/>
<path d="M212.649 260.827L256.84 260.827C258.642 260.827 260.104 262.289 260.104 264.091L260.104 268.409C260.104 270.211 258.642 271.673 256.84 271.673L212.649 271.673C210.846 271.673 209.385 270.211 209.385 268.409L209.385 264.091C209.385 262.289 210.846 260.827 212.649 260.827Z" fill="#080808" fill-rule="nonzero" opacity="1" stroke="none"/>
<path d="M186.89 282.519L282.598 282.519C284.401 282.519 285.862 283.98 285.862 285.783L285.862 290.1C285.862 291.903 284.401 293.364 282.598 293.364L186.89 293.364C185.087 293.364 183.626 291.903 183.626 290.1L183.626 285.783C183.626 283.98 185.087 282.519 186.89 282.519Z" fill="#e6e6e6" fill-rule="nonzero" opacity="1" stroke="none"/>
<path d="M186.89 304.21L282.598 304.21C284.401 304.21 285.862 305.671 285.862 307.474L285.862 311.791C285.862 313.594 284.401 315.056 282.598 315.056L186.89 315.056C185.087 315.056 183.626 313.594 183.626 311.791L183.626 307.474C183.626 305.671 185.087 304.21 186.89 304.21Z" fill="#e6e6e6" fill-rule="nonzero" opacity="1" stroke="none"/>
<path d="M290.711 376.846L290.928 377.53L290.939 377.553L297.465 397.391L304.971 420.252L319.094 463.213L319.23 469.887L319.23 469.91L320.28 523.594L317.371 530.872L320.645 542.805C320.645 542.805 319.139 524.768 311.063 535.126C306.488 541.012 301.138 547.035 296.746 552.682C303.146 555.272 309.648 557.614 316.253 559.709C317.679 560.166 319.116 560.599 320.554 561.033C320.862 561.124 321.17 561.215 321.478 561.306C343.372 567.781 366.008 571.42 388.829 572.132C390.015 572.167 391.179 572.189 392.308 572.212C392.707 572.224 393.095 572.235 393.483 572.235C394.761 572.246 396.027 572.258 397.304 572.258C399.883 572.258 402.449 572.22 405.005 572.144C423.918 571.611 442.721 569.068 461.096 564.558C460.971 556.972 460.628 548.108 460.138 538.639C459.91 533.996 454.788 528.966 454.48 524.106C454.263 520.456 458.86 517.022 458.621 513.314C457.069 490.488 455.13 499.25 453.693 483.086C453.544 481.5 453.407 479.983 453.282 478.534C452.358 468.153 451.719 461.662 451.719 461.662L457.856 422.979L467.496 362.244L466.754 361.023L465.922 360.613L415.078 335.447L412.317 328.375C410.671 324.206 406.657 321.456 402.176 321.427L368.683 321.291C365.156 321.275 361.839 322.961 359.773 325.819L350.704 338.379L290.711 376.846Z" fill="#3f3d56" fill-rule="nonzero" opacity="1" stroke="none"/>
<path d="M326.817 453.654L319.23 469.887L314.051 480.975L305.142 527.621L300.682 532.355L296.86 515.596L256.862 524.477C255.55 517.187 256.511 524.723 255.701 516.727C255.929 516.499 256.169 516.27 256.408 516.042C257.047 515.449 257.583 514.89 257.572 514.354C257.116 486.77 258.485 439.828 269.915 411.388C271.705 406.745 274.066 402.342 276.942 398.281C277.17 397.973 277.387 397.665 277.604 397.357C282.874 389.976 286.205 382.709 290.928 377.542L290.928 377.53C290.957 377.507 290.984 377.48 291.008 377.45C291.025 377.442 291.04 377.43 291.053 377.416L323.497 360.213L324.889 399.319L325.881 427.427L326.817 453.654Z" fill="#3f3d56" fill-rule="nonzero" opacity="1" stroke="none"/>
<path d="M443.801 458.264L453.277 478.539L456.585 485.6L465.492 532.242L469.937 536.965L473.768 520.209L475.568 519.84L508.026 513.118L517.487 543.164C521.882 535.84 520.519 526.434 514.225 520.658C513.579 520.074 513.041 519.505 513.056 518.966C513.595 486.523 511.61 427.283 493.689 402.9C487.997 395.163 484.582 387.456 479.613 382.072C479.598 382.056 479.598 382.041 479.583 382.041L467.491 362.243L466.753 361.027L465.922 360.612L443.801 458.264Z" fill="#3f3d56" fill-rule="nonzero" opacity="1" stroke="none"/>
<path d="M341.838 267.201C341.838 242.592 361.788 222.642 386.397 222.642C411.005 222.642 430.955 242.592 430.955 267.201C430.955 291.809 411.005 311.759 386.397 311.759C361.788 311.759 341.838 291.809 341.838 267.201Z" fill="#ffb6b6" fill-rule="nonzero" opacity="1" stroke="none"/>
<path d="M446.622 236.077C445.924 235.331 444.953 234.902 443.932 234.887L444.602 233.027C445.048 231.834 444.815 230.494 443.995 229.52C443.175 228.546 441.893 228.09 440.642 228.327L438.202 228.797L438.432 227.167C438.612 225.932 438.126 224.694 437.155 223.909C436.184 223.125 434.872 222.911 433.702 223.347C432.643 223.764 431.452 223.679 430.462 223.117C429.469 222.572 428.767 221.617 428.542 220.507L427.692 216.407L427.602 216.187C423.462 209.287 415.502 204.267 405.762 202.427C397.092 200.777 388.202 201.617 379.632 202.407C376.232 202.727 372.392 203.087 369.192 205.047C366.472 206.727 364.172 210.087 364.642 213.477C356.192 210.887 347.132 216.057 342.642 222.577C337.322 230.337 336.452 240.057 336.312 247.657C335.932 265.637 339.642 280.347 347.312 291.387C347.872 292.187 348.012 293.857 349.122 294.417L348.892 294.047C350.132 294.667 351.392 295.667 350.922 296.737C349.572 299.817 358.542 306.627 364.862 308.877C376.392 312.987 391.722 312.637 402.502 311.157L402.882 308.607C406.772 308.077 409.512 307.067 410.282 305.487C411.642 304.327 412.802 303.287 413.812 302.327L413.822 302.317C413.842 302.297 413.882 302.267 413.902 302.247C418.772 297.577 419.902 294.917 420.412 290.867C420.902 286.897 420.032 282.867 419.142 279.237C437.882 282.137 411.762 259.277 429.222 254.857C429.423 254.795 429.626 254.745 429.832 254.707C430.342 254.587 430.852 254.467 431.342 254.327C433.704 253.686 435.966 252.72 438.062 251.457C442.942 248.487 444.552 244.547 447.072 240.107C447.819 238.809 447.636 237.178 446.622 236.077Z" fill="#2f2e41" fill-rule="nonzero" opacity="1" stroke="none"/>
<path d="M543.992 461.437C543.982 463.187 543.962 465.637 543.882 468.667C543.872 469.087 543.862 469.517 543.852 469.957C543.722 475.527 543.592 480.197 543.382 485.387C543.372 485.747 543.362 486.097 543.342 486.457C543.062 493.697 542.622 502.127 541.862 515.477C540.452 540.137 537.992 518.867 535.522 527.517C535.402 527.947 535.272 528.457 535.152 529.057C534.778 531.234 534.147 533.359 533.272 535.387C531.962 536.167 530.612 536.917 529.282 537.667C525.492 539.777 521.642 541.807 517.762 543.737C515.582 544.817 513.392 545.877 511.192 546.897C510.842 547.057 510.502 547.217 510.162 547.367C498.896 552.578 487.286 557.008 475.412 560.627C473.092 561.327 470.782 562.007 468.442 562.637C466.002 563.317 463.562 563.957 461.092 564.557C442.718 569.068 423.915 571.612 405.002 572.147C402.452 572.227 399.882 572.257 397.302 572.257C396.022 572.257 394.762 572.247 393.482 572.237C393.092 572.237 392.702 572.227 392.312 572.217C391.182 572.187 390.012 572.167 388.832 572.137C366.011 571.425 343.376 567.785 321.482 561.307L320.552 561.037C319.112 560.597 317.682 560.167 316.252 559.707C309.652 557.617 303.149 555.277 296.742 552.687C291.852 550.717 287.019 548.603 282.242 546.347C282.199 546.335 282.158 546.315 282.122 546.287C281.122 545.827 280.112 545.347 279.112 544.857C278.982 544.787 278.842 544.717 278.702 544.647C274.972 542.827 271.282 540.92 267.632 538.927C264.562 531.877 260.242 530.527 257.562 524.327C256.782 522.485 256.219 520.559 255.882 518.587C255.882 518.567 255.872 518.547 255.872 518.517C256.152 522.237 254.682 511.917 255.862 518.477C255.852 518.357 255.842 518.227 255.832 518.077C255.802 517.717 255.762 517.277 255.702 516.727C252.272 483.237 252.492 444.937 251.002 413.377C250.902 411.337 250.799 409.383 250.692 407.517C250.662 406.897 250.622 406.287 250.582 405.687C250.652 405.507 250.732 405.317 250.822 405.137C250.841 405.085 250.865 405.035 250.892 404.987C250.922 404.925 250.955 404.865 250.992 404.807C251.012 404.777 251.042 404.737 251.062 404.707C251.077 404.672 251.094 404.639 251.112 404.607C251.202 404.467 251.302 404.317 251.412 404.177C251.462 404.117 251.502 404.067 251.552 404.017C251.587 403.966 251.627 403.919 251.672 403.877C251.703 403.829 251.74 403.785 251.782 403.747C251.822 403.707 251.862 403.657 251.912 403.607C251.934 403.575 251.961 403.548 251.992 403.527C252.071 403.436 252.158 403.352 252.252 403.277C252.609 402.949 252.99 402.648 253.392 402.377C253.532 402.287 253.682 402.197 253.822 402.097C254.83 401.494 255.891 400.985 256.992 400.577C257.372 400.437 257.752 400.307 258.162 400.167C258.312 400.127 258.452 400.077 258.602 400.027C258.822 399.957 259.042 399.887 259.272 399.837C260.412 399.497 261.642 399.207 262.972 398.937C263.132 398.907 263.302 398.877 263.472 398.837C263.712 398.787 263.962 398.747 264.212 398.707C264.552 398.647 264.902 398.587 265.252 398.527C268.222 398.057 271.592 397.707 275.312 397.477C275.662 397.457 276.012 397.437 276.362 397.417C276.772 397.397 277.182 397.377 277.602 397.357C277.952 397.337 278.312 397.327 278.672 397.317C279.022 397.297 279.382 397.287 279.752 397.277C280.762 397.247 281.802 397.217 282.862 397.197C285.882 397.137 289.062 397.157 292.402 397.227C293.952 397.267 295.532 397.307 297.152 397.377C297.262 397.377 297.362 397.387 297.462 397.387C298.872 397.437 300.292 397.497 301.752 397.577C302.772 397.627 303.802 397.677 304.832 397.737C305.802 397.797 306.782 397.857 307.772 397.927C308.542 397.967 309.312 398.027 310.092 398.077C310.752 398.127 311.412 398.177 312.072 398.217L312.972 398.277C313.462 398.317 313.952 398.347 314.452 398.397C315.552 398.487 316.652 398.577 317.772 398.667C318.882 398.767 320.012 398.867 321.142 398.967C322.272 399.067 323.412 399.177 324.552 399.287C324.672 399.297 324.782 399.307 324.892 399.317C325.932 399.427 326.972 399.527 328.022 399.637C328.262 399.657 328.512 399.677 328.752 399.707C329.753 399.807 330.774 399.925 331.784 400.033C332.094 400.066 332.403 400.098 332.714 400.132C333.505 400.219 334.285 400.293 335.082 400.387C336.132 400.507 337.202 400.617 338.242 400.757C339.052 400.847 339.862 400.937 340.672 401.037C341.942 401.187 343.232 401.347 344.522 401.517C345.012 401.577 345.502 401.637 345.992 401.707C349.672 402.167 353.392 402.677 357.172 403.207C362.902 404.017 368.722 404.897 374.582 405.847C380.452 406.797 386.356 407.8 392.292 408.857C393.792 409.127 395.292 409.397 396.802 409.677C397.482 409.807 398.162 409.937 398.842 410.067C400.002 410.277 401.162 410.497 402.322 410.717C403.482 410.937 404.642 411.157 405.802 411.387C407.182 411.657 408.572 411.927 409.952 412.197C419.042 413.997 428.082 415.917 436.902 417.927C438.352 418.257 439.802 418.597 441.242 418.927C444.122 419.597 446.976 420.277 449.802 420.967C450.582 421.147 451.352 421.337 452.122 421.527C454.042 422.007 455.962 422.487 457.852 422.977L458.182 423.067C459.572 423.407 460.932 423.757 462.292 424.117C465.502 424.957 468.659 425.807 471.762 426.667C473.822 427.237 475.859 427.813 477.872 428.397C480.882 429.267 483.832 430.147 486.702 431.037C487.412 431.257 488.122 431.477 488.822 431.687C490.922 432.337 492.992 432.997 495.002 433.657C496.602 434.177 498.162 434.707 499.702 435.237C501.242 435.767 502.752 436.297 504.232 436.827C505.182 437.167 506.122 437.527 507.062 437.867C508.412 438.367 509.742 438.867 511.042 439.367C511.442 439.517 511.832 439.677 512.222 439.827C512.472 439.937 512.712 440.027 512.952 440.127C513.422 440.317 513.902 440.497 514.362 440.687C514.832 440.867 515.292 441.057 515.752 441.257C516.202 441.437 516.662 441.627 517.102 441.817C517.552 441.997 517.992 442.187 518.432 442.387C518.802 442.537 519.162 442.697 519.512 442.857C520.222 443.167 520.932 443.477 521.622 443.797C521.962 443.957 522.302 444.107 522.642 444.267L523.422 444.627C523.532 444.687 523.642 444.737 523.752 444.787C524.002 444.907 524.262 445.037 524.512 445.157C525.092 445.427 525.662 445.717 526.222 445.987C526.972 446.367 527.702 446.747 528.402 447.117C529.112 447.497 529.802 447.877 530.462 448.247C530.572 448.307 530.672 448.367 530.782 448.427C530.932 448.507 531.082 448.597 531.232 448.677C531.742 448.967 532.232 449.267 532.722 449.557C533.682 450.147 534.592 450.727 535.442 451.307C535.632 451.437 535.812 451.567 536.002 451.687C536.632 452.137 537.232 452.577 537.792 453.027C537.792 453.037 537.792 453.037 537.802 453.037C537.992 453.177 538.172 453.327 538.352 453.467C538.502 453.607 538.662 453.727 538.812 453.867C539.332 454.317 539.812 454.747 540.252 455.187C540.4 455.323 540.54 455.466 540.672 455.617C540.73 455.665 540.784 455.719 540.832 455.777C541.032 455.977 541.212 456.177 541.382 456.377C541.409 456.404 541.432 456.434 541.452 456.467C541.692 456.747 541.912 457.027 542.122 457.307C542.222 457.447 542.332 457.587 542.422 457.727C542.542 457.897 542.662 458.077 542.762 458.247C542.852 458.387 542.932 458.537 543.012 458.677C543.224 459.037 543.405 459.415 543.552 459.807C543.665 460.072 543.755 460.346 543.822 460.627C543.898 460.892 543.955 461.163 543.992 461.437Z" fill="#2f2e41" fill-rule="nonzero" opacity="1" stroke="none"/>
<path d="M543.992 461.437C543.982 463.187 543.962 465.637 543.882 468.667C543.872 469.087 543.852 469.517 543.842 469.957C543.742 474.207 543.592 479.457 543.382 485.387C543.372 485.747 543.362 486.097 543.342 486.457C543.062 493.697 542.622 502.127 541.862 515.477C540.452 540.137 537.992 518.867 535.522 527.517C528.662 523.297 521.142 518.877 513.102 514.337C511.652 513.517 510.189 512.693 508.712 511.867C492.632 502.897 474.672 493.497 455.922 484.187C455.182 483.817 454.432 483.447 453.692 483.087C410.742 461.857 363.862 441.207 325.882 427.427C318.552 424.767 311.552 422.367 304.972 420.257C291.112 415.827 279.132 412.727 269.912 411.387C260.312 409.987 253.682 410.487 251.002 413.377C250.902 411.337 250.799 409.383 250.692 407.517C250.652 406.897 250.612 406.287 250.572 405.687C250.634 405.522 250.714 405.365 250.792 405.207C250.803 405.183 250.811 405.16 250.822 405.137C250.841 405.085 250.865 405.035 250.892 404.987C250.922 404.925 250.955 404.865 250.992 404.807C251.025 404.736 251.065 404.669 251.112 404.607C251.202 404.467 251.302 404.317 251.412 404.177C251.493 404.072 251.58 403.972 251.672 403.877C251.703 403.829 251.74 403.785 251.782 403.747C251.822 403.707 251.862 403.657 251.912 403.607C251.934 403.575 251.961 403.548 251.992 403.527C252.071 403.436 252.158 403.352 252.252 403.277C252.609 402.948 252.99 402.648 253.392 402.377C253.532 402.287 253.682 402.197 253.822 402.097C254.83 401.494 255.891 400.985 256.992 400.577C257.372 400.437 257.752 400.307 258.162 400.167C258.312 400.127 258.452 400.077 258.602 400.027C258.822 399.957 259.042 399.887 259.272 399.837C260.412 399.497 261.642 399.207 262.972 398.937C263.372 398.857 263.792 398.777 264.212 398.707C264.552 398.647 264.902 398.587 265.252 398.527C268.222 398.057 271.592 397.707 275.312 397.477C275.662 397.457 276.012 397.437 276.362 397.417C276.772 397.397 277.182 397.377 277.602 397.357C277.952 397.337 278.312 397.327 278.672 397.317C279.022 397.297 279.382 397.287 279.752 397.277C280.762 397.247 281.802 397.217 282.862 397.197C285.882 397.147 289.062 397.167 292.402 397.237C293.952 397.267 295.532 397.317 297.152 397.387C297.252 397.387 297.362 397.397 297.462 397.397C298.872 397.437 300.302 397.507 301.752 397.577C302.772 397.627 303.802 397.677 304.832 397.737C305.802 397.797 306.782 397.857 307.772 397.927C308.542 397.967 309.312 398.027 310.092 398.077C310.752 398.127 311.412 398.177 312.072 398.217C312.862 398.277 313.652 398.337 314.452 398.397C315.552 398.487 316.652 398.577 317.772 398.667C318.882 398.767 320.012 398.867 321.142 398.967C322.272 399.067 323.412 399.177 324.552 399.287C324.672 399.297 324.782 399.307 324.892 399.317C325.932 399.427 326.972 399.527 328.022 399.637C333.842 400.227 339.832 400.917 345.992 401.707C349.672 402.177 353.399 402.68 357.172 403.217C362.902 404.027 368.722 404.907 374.582 405.847C380.452 406.797 386.356 407.8 392.292 408.857C393.792 409.127 395.292 409.397 396.802 409.677C398.642 410.017 400.482 410.363 402.322 410.717C403.482 410.937 404.642 411.157 405.802 411.387C407.182 411.657 408.572 411.927 409.952 412.197C419.042 413.997 428.082 415.917 436.902 417.927C438.352 418.257 439.802 418.597 441.242 418.927C444.122 419.597 446.976 420.277 449.802 420.967C450.582 421.157 451.352 421.347 452.122 421.537C454.052 422.017 455.962 422.497 457.852 422.977L457.852 422.987C457.962 423.007 458.072 423.037 458.182 423.067C459.562 423.417 460.932 423.767 462.292 424.127C465.502 424.967 468.659 425.813 471.762 426.667C473.822 427.247 475.862 427.817 477.872 428.397C480.882 429.277 483.832 430.157 486.702 431.037C487.412 431.257 488.122 431.477 488.822 431.687C490.922 432.347 492.982 433.003 495.002 433.657C496.602 434.177 498.162 434.707 499.702 435.237C501.242 435.767 502.752 436.297 504.232 436.827C505.192 437.167 506.132 437.517 507.062 437.857C508.422 438.357 509.742 438.857 511.042 439.367C511.442 439.517 511.832 439.677 512.222 439.827C512.952 440.107 513.662 440.397 514.362 440.687C514.832 440.867 515.292 441.057 515.752 441.257C516.202 441.437 516.662 441.627 517.102 441.817C517.552 441.997 517.992 442.187 518.432 442.387C518.802 442.537 519.162 442.697 519.512 442.857C520.222 443.167 520.932 443.477 521.622 443.797C521.962 443.957 522.302 444.107 522.642 444.267L523.422 444.627C523.532 444.687 523.642 444.737 523.752 444.787C524.602 445.187 525.422 445.587 526.222 445.987C526.972 446.367 527.702 446.747 528.402 447.117C529.232 447.557 530.022 447.987 530.782 448.427C530.932 448.507 531.082 448.597 531.232 448.677C531.742 448.967 532.232 449.267 532.722 449.557C533.682 450.147 534.592 450.727 535.442 451.307C536.282 451.887 537.062 452.457 537.792 453.027C537.792 453.037 537.792 453.037 537.802 453.037C538.152 453.317 538.492 453.597 538.812 453.867C539.332 454.317 539.812 454.747 540.252 455.187C540.4 455.323 540.54 455.466 540.672 455.617C540.73 455.665 540.784 455.718 540.832 455.777C541.042 456.007 541.252 456.237 541.452 456.467C541.692 456.747 541.912 457.027 542.122 457.307C542.222 457.447 542.332 457.587 542.422 457.727C542.542 457.897 542.662 458.077 542.762 458.247C542.852 458.387 542.932 458.537 543.012 458.677C543.224 459.037 543.405 459.415 543.552 459.807C543.662 460.073 543.752 460.347 543.822 460.627C543.898 460.892 543.955 461.163 543.992 461.437Z" fill="#000000" fill-rule="nonzero" opacity="0.2" stroke="none"/>
</g>
</svg>
